<svg xmlns="http://www.w3.org/2000/svg" viewBox="0 0 137.81 146.52"><defs><style>.cls-1,.cls-3,.cls-5,.cls-6{fill:#f4ecd4;}.cls-2,.cls-4{fill:none;}.cls-2,.cls-3,.cls-4,.cls-5,.cls-6{stroke:#f4ecd4;stroke-miterlimit:10;}.cls-2{stroke-width:8px;}.cls-4{stroke-linecap:round;stroke-width:9px;}.cls-5{stroke-width:2px;}.cls-6{stroke-width:5px;}</style></defs><title>資產 3</title><g id="圖層_2" data-name="圖層 2"><g id="圖層_1-2" data-name="圖層 1"><path class="cls-1" d="M11.05,127.5H27.31v4H17.65v3.27H25.9v3.78H17.65v7.65h-6.6Z"/><path class="cls-1" d="M29.31,139.47a6.41,6.41,0,0,1,2.39-5.11,9.63,9.63,0,0,1,6.43-2q4.63,0,7,2.36a6.74,6.74,0,0,1-.46,9.81,9.75,9.75,0,0,1-6.53,2,10,10,0,0,1-6-1.66A6.36,6.36,0,0,1,29.31,139.47Zm5.93,0a3.77,3.77,0,0,0,.83,2.68,3,3,0,0,0,4.2,0,3.86,3.86,0,0,0,.82-2.75,3.62,3.62,0,0,0-.83-2.62,2.69,2.69,0,0,0-2-.86,2.84,2.84,0,0,0-2.14.87A3.71,3.71,0,0,0,35.24,139.46Z"/><path class="cls-1" d="M57.6,127.5v5.16h3.26v3.8H57.6v4.81a2.34,2.34,0,0,0,.19,1.14,1.14,1.14,0,0,0,1,.44,7.51,7.51,0,0,0,1.83-.34l.43,3.59a21.76,21.76,0,0,1-4.09.42,7.8,7.8,0,0,1-3.25-.5,3.16,3.16,0,0,1-1.55-1.51,7.78,7.78,0,0,1-.5-3.28v-4.77H49.5v-3.8h2.18v-2.49Z"/><path class="cls-1" d="M64.33,132.66h5.53v2.22a5.46,5.46,0,0,1,1.65-2,3.81,3.81,0,0,1,2.1-.54,6.88,6.88,0,0,1,2.86.72l-1.83,3.7a5,5,0,0,0-1.66-.38,2.14,2.14,0,0,0-1.8.84c-.61.79-.91,2.27-.91,4.44v4.55H64.33Z"/><path class="cls-1" d="M78.28,127.5h5.91V131H78.28Zm0,5.16h5.91v13.56H78.28Z"/><path class="cls-1" d="M100.06,140.9l5.62.57a6.56,6.56,0,0,1-1.52,2.67,7.2,7.2,0,0,1-2.71,1.76,12.11,12.11,0,0,1-4.19.62,17.37,17.37,0,0,1-4.09-.4,7.58,7.58,0,0,1-2.81-1.3,6.7,6.7,0,0,1-1.84-2.11,6.62,6.62,0,0,1-.67-3.22,6.84,6.84,0,0,1,.81-3.48,6.52,6.52,0,0,1,1.63-1.83,7.55,7.55,0,0,1,2.12-1.2,13.13,13.13,0,0,1,4.43-.63,11.35,11.35,0,0,1,5.76,1.19,6.34,6.34,0,0,1,2.78,3.47l-5.56.65a2.3,2.3,0,0,0-.95-1.31,3.46,3.46,0,0,0-1.86-.44,3.16,3.16,0,0,0-2.37.93,3.81,3.81,0,0,0-.91,2.79,3.36,3.36,0,0,0,.9,2.54,3.18,3.18,0,0,0,2.3.87,3.46,3.46,0,0,0,1.95-.53A3.08,3.08,0,0,0,100.06,140.9Z"/><path class="cls-1" d="M108.43,127.5h5.92v18.72h-5.92Z"/><path class="cls-1" d="M135.85,140.73H124a3.08,3.08,0,0,0,.77,1.86,3,3,0,0,0,2.23.88,3.84,3.84,0,0,0,1.66-.38,3.74,3.74,0,0,0,1-.86l5.82.47a7.79,7.79,0,0,1-3.22,2.93,13,13,0,0,1-5.42.89,12.36,12.36,0,0,1-4.82-.76,6.77,6.77,0,0,1-2.91-2.41,6.62,6.62,0,0,1-1.16-3.89,6.43,6.43,0,0,1,2.32-5.14,9.59,9.59,0,0,1,6.4-2,12.82,12.82,0,0,1,5.22.88,6.38,6.38,0,0,1,2.92,2.56,8.34,8.34,0,0,1,1,4.35Zm-6-2.49a3.2,3.2,0,0,0-.92-2.16,2.91,2.91,0,0,0-2-.65,2.82,2.82,0,0,0-2.25,1,3.35,3.35,0,0,0-.68,1.83Z"/><ellipse class="cls-2" cx="68.9" cy="61.05" rx="64.9" ry="57.05"/><path class="cls-3" d="M50,58.88a1.92,1.92,0,0,1,2-1.78h9.35a1.8,1.8,0,1,1,0,3.57H57.84L62.69,73a1.75,1.75,0,0,1-1.25,2.28,2.57,2.57,0,0,1-.67.09,2,2,0,0,1-1.92-1.2L53.53,60.67H52a1.92,1.92,0,0,1-2-1.79Z"/><path class="cls-3" d="M50.84,85.59a3.27,3.27,0,0,0-4.21-.42A10.45,10.45,0,0,1,40.58,87h0c-5.16,0-9.62-3.82-9.74-8.36a8,8,0,0,1,2.77-6.19,10.38,10.38,0,0,1,7-2.58,9,9,0,0,1,4.16.86,3,3,0,0,0,1.68.46,2.83,2.83,0,0,0,3-2.63,2.57,2.57,0,0,0-1.25-2.15,15.36,15.36,0,0,0-7.59-1.81A16.75,16.75,0,0,0,29.3,68.81a12.58,12.58,0,0,0,.34,19.52,16.75,16.75,0,0,0,10.92,4h0a17.22,17.22,0,0,0,9.78-3,2.41,2.41,0,0,0,.47-3.7Z"/><line class="cls-4" x1="57.85" y1="71.6" x2="39.85" y2="79.32"/><line class="cls-4" x1="62.34" y1="79.32" x2="40.82" y2="79.32"/><path class="cls-5" d="M111.63,48.74a1.62,1.62,0,0,0,0-.59,18.33,18.33,0,0,0-2.48-7.5,21.73,21.73,0,0,0-5.31-6.07,30,30,0,0,0-7.23-4.18,33.45,33.45,0,0,0-6.91-2l0-.19-3.09-.43,0,.21a34.81,34.81,0,0,0-10.11.54A28,28,0,0,0,66.05,33a20.64,20.64,0,0,0-7,8.19,1.86,1.86,0,0,0-.2.57,2,2,0,0,0,.47,1.65,2.54,2.54,0,0,0,1.66.88,2.94,2.94,0,0,0,1.78-.35l.07,0a12.34,12.34,0,0,1,2.71-1.27,5.77,5.77,0,0,1,2.41-.14,6,6,0,0,1,2.88,1.17,8.31,8.31,0,0,1,2.26,2.53c.08.15.2.39.34.69.21.48.3.66.35.76a2.51,2.51,0,0,0,2,1.34A2.75,2.75,0,0,0,78,48.16c.13-.12.32-.33.6-.63s.42-.45.56-.58a9.53,9.53,0,0,1,3-1.83,6.75,6.75,0,0,1,1.55-.38l-2.24,13,3.09.41,2.24-13a6.09,6.09,0,0,1,1.35.77,8.37,8.37,0,0,1,2.24,2.53c.08.15.2.38.34.69.21.48.31.66.36.76a2.52,2.52,0,0,0,2,1.34,2.71,2.71,0,0,0,2.31-.77c.08-.08.24-.23.6-.63s.43-.45.56-.58a9.36,9.36,0,0,1,3-1.82,6.33,6.33,0,0,1,3.15-.37,5.39,5.39,0,0,1,2.25.76,10.76,10.76,0,0,1,2.16,1.92l.06.06a2.76,2.76,0,0,0,3.46.39,2.16,2.16,0,0,0,1-1.45Zm-4.83-3.13a8.7,8.7,0,0,0-3.63-1.26,10,10,0,0,0-4.84.55,12.54,12.54,0,0,0-4,2.45h0c-.18.17-.4.38-.67.68-.16-.35-.29-.62-.41-.83h0a11.26,11.26,0,0,0-3-3.37A9.27,9.27,0,0,0,85.77,42h0a9.85,9.85,0,0,0-4.83.56,12.69,12.69,0,0,0-4,2.45h0c-.18.17-.4.39-.66.68-.16-.34-.29-.61-.41-.82v0a11.35,11.35,0,0,0-3-3.38,9.48,9.48,0,0,0-4.44-1.79,9.09,9.09,0,0,0-3.89.26,13.46,13.46,0,0,0-1.76.68A18.34,18.34,0,0,1,68,35.12a24.75,24.75,0,0,1,9.22-3.93,31.46,31.46,0,0,1,10.49-.33,30.29,30.29,0,0,1,7.59,2,27,27,0,0,1,6.47,3.74,18.9,18.9,0,0,1,4.62,5.29,15.69,15.69,0,0,1,1.88,4.81A11.63,11.63,0,0,0,106.8,45.61Z"/><path class="cls-1" d="M64.31,89.06H81.09a4.77,4.77,0,0,0,0-9.53H64.31a4.77,4.77,0,0,0,0,9.53Z"/><path class="cls-1" d="M50.58,61.5l8.94,24.12c.91,2.45,3.43,4.38,6.15,3.5,2.4-.78,4.47-3.53,3.49-6.15L60.22,58.84c-.9-2.44-3.42-4.37-6.15-3.49-2.39.77-4.46,3.52-3.49,6.15Z"/><path class="cls-1" d="M84.21,74.73a16.06,16.06,0,0,1,18-.27V61.09H97.27V59.17h4.93V56.85c0-1.1-1.49-2-3.32-2H71.57c-1.84,0-3.33.9-3.33,2v2.32h4.93v1.92H68.24V77.33c0,1.1,1.49,2,3.33,2h10S81.4,76.92,84.21,74.73Z"/><path class="cls-6" d="M87.79,78.38a1.32,1.32,0,0,0-.26,2,1.79,1.79,0,0,0,2.3.23,5.91,5.91,0,0,1,5.49-.6A4.48,4.48,0,0,1,98,86.22a5.65,5.65,0,0,1-7,2.34,5.22,5.22,0,0,1-1.38-.79,1.81,1.81,0,0,0-2.32.11,1.32,1.32,0,0,0,.12,2,8.8,8.8,0,0,0,2.23,1.28C93.94,92.9,99,91.2,101,87.4s0-8.29-4.31-10a9.55,9.55,0,0,0-8.88,1Z"/></g></g></svg>