<svg xmlns="http://www.w3.org/2000/svg" viewBox="0 0 414.31 91.11"><defs><style>.cls-1,.cls-2,.cls-4,.cls-5{fill:#11274a;}.cls-2,.cls-3,.cls-4,.cls-5{stroke:#11274a;stroke-miterlimit:10;}.cls-2{stroke-width:0.66px;}.cls-3{fill:none;stroke-linecap:round;stroke-width:5.95px;}.cls-4{stroke-width:1.32px;}.cls-5{stroke-width:3.3px;}</style></defs><title>資產 2</title><g id="圖層_2" data-name="圖層 2"><g id="圖層_1-2" data-name="圖層 1"><path class="cls-1" d="M134.66,25.15h36.45V35.4H149.47v8.33H168v9.63H149.47v19.5H134.66Z"/><path class="cls-1" d="M175.6,55.67a17.31,17.31,0,0,1,5.33-13q5.34-5.13,14.42-5.12,10.38,0,15.68,6a17.4,17.4,0,0,1,4.27,11.94A17.38,17.38,0,0,1,210,68.55q-5.3,5.08-14.63,5.09-8.32,0-13.47-4.23A17,17,0,0,1,175.6,55.67Zm13.27,0c0,3.08.63,5.36,1.87,6.84a6.14,6.14,0,0,0,9.41,0c1.22-1.45,1.84-3.79,1.84-7q0-4.48-1.86-6.69a5.76,5.76,0,0,0-4.59-2.19,6,6,0,0,0-4.78,2.23C189.5,50.34,188.87,52.61,188.87,55.64Z"/><path class="cls-1" d="M239,25.15V38.3h7.29V48H239V60.24a6.6,6.6,0,0,0,.42,2.92,2.41,2.41,0,0,0,2.28,1.11,14.76,14.76,0,0,0,4.1-.85l1,9.14a42.8,42.8,0,0,1-9.17,1.08q-5,0-7.29-1.27a7.74,7.74,0,0,1-3.47-3.85q-1.12-2.58-1.12-8.37V48h-4.88V38.3h4.88V32Z"/><path class="cls-1" d="M254.05,38.3h12.4V44a13.45,13.45,0,0,1,3.69-5.06,7.82,7.82,0,0,1,4.71-1.38,14,14,0,0,1,6.41,1.82l-4.1,9.44a10.5,10.5,0,0,0-3.71-1,4.59,4.59,0,0,0-4,2.15q-2.06,3-2.05,11.32V72.86H254.05Z"/><path class="cls-1" d="M285.32,25.15h13.25v9H285.32Zm0,13.15h13.25V72.86H285.32Z"/><path class="cls-1" d="M334.13,59.32l12.6,1.43a17.76,17.76,0,0,1-3.42,6.82A15.82,15.82,0,0,1,337.24,72a23.68,23.68,0,0,1-9.39,1.6,34.32,34.32,0,0,1-9.16-1,15.88,15.88,0,0,1-6.29-3.31,16.77,16.77,0,0,1-4.14-5.38,19.08,19.08,0,0,1-1.49-8.2,19.22,19.22,0,0,1,1.82-8.87,16.06,16.06,0,0,1,3.64-4.67A17,17,0,0,1,317,39.11a26.43,26.43,0,0,1,9.93-1.59q8.46,0,12.9,3A16,16,0,0,1,346,49.39l-12.46,1.66a5.78,5.78,0,0,0-2.13-3.33,6.9,6.9,0,0,0-4.15-1.12A6.7,6.7,0,0,0,322,49c-1.36,1.57-2,3.95-2,7.13,0,2.84.67,5,2,6.47a6.67,6.67,0,0,0,5.15,2.2,7.05,7.05,0,0,0,4.37-1.33A7.94,7.94,0,0,0,334.13,59.32Z"/><path class="cls-1" d="M352.88,25.15h13.27V72.86H352.88Z"/><path class="cls-1" d="M414.31,58.86H387.76a8.64,8.64,0,0,0,1.72,4.76,6.3,6.3,0,0,0,5,2.24,7.57,7.57,0,0,0,3.71-1,8.89,8.89,0,0,0,2.31-2.18l13.05,1.21a18.75,18.75,0,0,1-7.23,7.47q-4.23,2.25-12.14,2.26c-4.57,0-8.18-.65-10.8-1.94a15.87,15.87,0,0,1-6.53-6.15,18.6,18.6,0,0,1-2.58-9.91q0-8.1,5.19-13.11t14.33-5q7.43,0,11.72,2.24a15.23,15.23,0,0,1,6.54,6.51q2.25,4.26,2.24,11.1Zm-13.47-6.34q-.39-3.84-2.06-5.5a6.5,6.5,0,0,0-9.46.84,9.29,9.29,0,0,0-1.53,4.66Z"/><path class="cls-2" d="M31,43.83a2.47,2.47,0,0,1,2.48-2.47H44.8a2.47,2.47,0,1,1,0,4.94H40.49l5.91,17a2.48,2.48,0,0,1-1.53,3.14,2.3,2.3,0,0,1-.81.14,2.49,2.49,0,0,1-2.34-1.66L35.25,46.3H33.43A2.48,2.48,0,0,1,31,43.83Z"/><path class="cls-2" d="M32,80.78a3.64,3.64,0,0,0-5.12-.57,11.72,11.72,0,0,1-7.36,2.58h0A12.06,12.06,0,0,1,7.63,71.23,11.85,11.85,0,0,1,19.47,59.09a9.78,9.78,0,0,1,5.07,1.19,3.33,3.33,0,0,0,2,.64,3.64,3.64,0,0,0,2.12-6.61,16.82,16.82,0,0,0-9.23-2.51,19.15,19.15,0,0,0,0,38.29h0a19.24,19.24,0,0,0,11.9-4.18A3.65,3.65,0,0,0,32,80.78Z"/><line class="cls-3" x1="40.51" y1="61.43" x2="18.62" y2="72.11"/><line class="cls-3" x1="45.97" y1="72.1" x2="19.79" y2="72.1"/><path class="cls-4" d="M105.94,29.78a2.65,2.65,0,0,0,0-.8,27.94,27.94,0,0,0-3-10.38,29.47,29.47,0,0,0-6.46-8.41,36.17,36.17,0,0,0-8.8-5.79,37.41,37.41,0,0,0-8.41-2.79l0-.26L75.54.76l0,.28a37.3,37.3,0,0,0-12.31.75A32.28,32.28,0,0,0,50.48,8a28,28,0,0,0-8.56,11.33,2.63,2.63,0,0,0-.24.79,3.09,3.09,0,0,0,2.58,3.51,3.23,3.23,0,0,0,2.17-.49l.09-.06a14,14,0,0,1,3.3-1.77,6.26,6.26,0,0,1,2.93-.19,6.92,6.92,0,0,1,3.5,1.62A11.24,11.24,0,0,1,59,26.18c.11.22.25.55.42,1,.26.67.37.92.43,1.05a3.09,3.09,0,0,0,5.22.79c.15-.17.39-.45.72-.87s.52-.62.69-.8a11.49,11.49,0,0,1,3.64-2.53A7.3,7.3,0,0,1,72,24.25l-2.72,18L73,42.8l2.72-18a7.28,7.28,0,0,1,1.64,1.06,11.52,11.52,0,0,1,2.72,3.5c.11.21.25.54.42,1,.26.66.37.92.44,1.05a3.09,3.09,0,0,0,5.21.79c.1-.11.28-.32.72-.87.3-.36.52-.63.69-.8A11.42,11.42,0,0,1,91.24,28a7,7,0,0,1,3.83-.51,6.13,6.13,0,0,1,2.74,1.06,14.09,14.09,0,0,1,2.63,2.66l.07.08a3.16,3.16,0,0,0,1.92,1.11,3.09,3.09,0,0,0,3.5-2.58Zm-5.88-4.33a9.93,9.93,0,0,0-4.43-1.74,10.76,10.76,0,0,0-5.88.77,15.06,15.06,0,0,0-4.9,3.38v0c-.22.23-.48.53-.82.94-.2-.49-.36-.85-.5-1.14v0A15,15,0,0,0,79.86,23a10.61,10.61,0,0,0-5.38-2.48h0a10.74,10.74,0,0,0-5.88.77,15.24,15.24,0,0,0-4.87,3.39h0c-.22.24-.49.55-.81.94-.19-.47-.35-.84-.5-1.14v0a15,15,0,0,0-3.68-4.68,10.71,10.71,0,0,0-5.39-2.47,9.94,9.94,0,0,0-4.74.35,16.21,16.21,0,0,0-2.14.95,24.15,24.15,0,0,1,6.41-7.67A28.28,28.28,0,0,1,64.06,5.5a34,34,0,0,1,22,2.35A32.3,32.3,0,0,1,93.92,13a25.63,25.63,0,0,1,5.63,7.33A23.76,23.76,0,0,1,101.83,27,14.45,14.45,0,0,0,100.06,25.45Z"/><path class="cls-1" d="M48.37,82.14H68.78a3.15,3.15,0,0,0,0-6.29H48.37a3.15,3.15,0,1,0,0,6.29Z"/><path class="cls-1" d="M34.34,46.49,45.22,79.87a3.3,3.3,0,1,0,6.37-1.75L40.71,44.73a3.3,3.3,0,1,0-6.37,1.76Z"/><path class="cls-1" d="M72.57,65.75a17.65,17.65,0,0,1,21.89-.36V46.87h-6V44.22h6V41c0-1.53-1.81-2.78-4-2.78H57.19c-2.23,0-4,1.25-4,2.78v3.2h6v2.65h-6V69.36c0,1.52,1.81,2.74,4,2.75H69.36S69.16,68.79,72.57,65.75Z"/><path class="cls-5" d="M76.93,70.81a2,2,0,0,0,2.48,3.12,6.47,6.47,0,1,1,1.37,11,6.38,6.38,0,0,1-1.68-1.09,2,2,0,0,0-2.66,3,10.22,10.22,0,0,0,2.71,1.77,10.46,10.46,0,1,0-2.22-17.73Z"/></g></g></svg>